<svg width="28" height="28" viewBox="0 0 28 28" fill="none" xmlns="http://www.w3.org/2000/svg">
<path fill-rule="evenodd" clip-rule="evenodd" d="M22.0866 6.5844C20.5995 5.90201 19.0047 5.39926 17.3372 5.11132C17.3069 5.10576 17.2765 5.11965 17.2609 5.14742C17.0558 5.51221 16.8286 5.98812 16.6695 6.36217C14.876 6.09367 13.0918 6.09367 11.3351 6.36217C11.176 5.9798 10.9406 5.51221 10.7345 5.14742C10.7189 5.12057 10.6886 5.10668 10.6582 5.11132C8.99167 5.39834 7.39689 5.90109 5.90878 6.5844C5.8959 6.58995 5.88486 6.59922 5.87753 6.61125C2.85256 11.1305 2.02389 15.5386 2.43041 19.8922C2.43225 19.9134 2.44421 19.9338 2.46076 19.9468C4.45655 21.4124 6.38981 22.3022 8.28717 22.892C8.31754 22.9013 8.34971 22.8902 8.36904 22.8651C8.81786 22.2522 9.21794 21.606 9.56098 20.9263C9.58122 20.8865 9.5619 20.8393 9.52052 20.8236C8.88592 20.5829 8.28165 20.2893 7.70039 19.956C7.65441 19.9292 7.65073 19.8634 7.69303 19.8319C7.81535 19.7403 7.9377 19.6449 8.0545 19.5486C8.07563 19.531 8.10507 19.5273 8.12992 19.5384C11.9486 21.2819 16.0827 21.2819 19.8563 19.5384C19.8811 19.5264 19.9106 19.5301 19.9326 19.5477C20.0495 19.644 20.1718 19.7403 20.295 19.8319C20.3373 19.8634 20.3346 19.9292 20.2886 19.956C19.7073 20.2958 19.1031 20.5829 18.4675 20.8227C18.4262 20.8384 18.4078 20.8865 18.428 20.9263C18.7784 21.605 19.1785 22.2513 19.619 22.8642C19.6374 22.8902 19.6705 22.9013 19.7009 22.892C21.6075 22.3022 23.5407 21.4124 25.5365 19.9468C25.554 19.9338 25.565 19.9144 25.5669 19.8931C26.0534 14.8599 24.752 10.4879 22.117 6.61217C22.1105 6.59922 22.0995 6.58995 22.0866 6.5844ZM10.1321 17.2413C8.98246 17.2413 8.03516 16.1858 8.03516 14.8896C8.03516 13.5933 8.96409 12.5378 10.1321 12.5378C11.3093 12.5378 12.2475 13.6026 12.2291 14.8896C12.2291 16.1858 11.3001 17.2413 10.1321 17.2413ZM15.7871 14.8896C15.7871 16.1858 16.7344 17.2413 17.8841 17.2413C19.0613 17.2413 19.981 16.1858 19.981 14.8896C19.9994 13.6026 19.0613 12.5378 17.8841 12.5378C16.716 12.5378 15.7871 13.5933 15.7871 14.8896Z" fill="#5865F2"/>
</svg>
