<svg width="121" height="105" viewBox="0 0 121 105" fill="none" xmlns="http://www.w3.org/2000/svg">
<path opacity="0.8" fill-rule="evenodd" clip-rule="evenodd" d="M106.954 33.1599C110.242 34.9556 114.363 33.7455 116.159 30.457C117.955 27.1685 116.745 23.047 113.456 21.2514C110.168 19.4557 106.046 20.6658 104.251 23.9543C102.455 27.2427 103.665 31.3643 106.954 33.1599ZM108.141 30.2488L107.763 30.9413L108.258 31.2118L108.636 30.5198C109.047 30.7171 109.435 30.8339 109.801 30.8702C110.243 30.9129 110.634 30.848 110.974 30.6755C111.317 30.502 111.593 30.2266 111.802 29.8491C111.941 29.5902 112.018 29.3358 112.034 29.0859C112.053 28.837 112.019 28.594 111.934 28.3569C111.85 28.1197 111.722 27.8892 111.551 27.6653C111.381 27.4415 111.177 27.2257 110.94 27.0179L110.678 26.7807L111.499 25.2757C111.689 25.4136 111.824 25.5686 111.904 25.7406C112.014 25.9756 112.014 26.2215 111.905 26.4784L113.159 27.1629C113.354 26.7911 113.432 26.413 113.394 26.0286C113.356 25.6442 113.207 25.2795 112.948 24.9344C112.736 24.649 112.453 24.3957 112.101 24.1745L112.481 23.4789L111.985 23.2084L111.604 23.9066C111.245 23.7434 110.89 23.6472 110.538 23.6181C110.098 23.5816 109.7 23.6478 109.343 23.8167C108.989 23.9866 108.711 24.2594 108.508 24.6351C108.257 25.0911 108.208 25.5365 108.363 25.9713C108.518 26.4061 108.821 26.8293 109.273 27.241L109.612 27.554L108.743 29.1456C108.618 29.0571 108.511 28.9597 108.42 28.8535C108.282 28.6862 108.196 28.505 108.164 28.3098C108.135 28.1137 108.171 27.908 108.27 27.6929L107.004 27.0018C106.771 27.4524 106.675 27.8847 106.715 28.299C106.759 28.7123 106.923 29.0961 107.208 29.4503C107.446 29.7449 107.757 30.0111 108.141 30.2488ZM109.24 29.4131C109.364 29.4606 109.485 29.4917 109.601 29.5061C109.801 29.5318 109.978 29.5121 110.132 29.4468C110.285 29.3815 110.402 29.2743 110.484 29.1253C110.559 28.9863 110.582 28.847 110.551 28.7073C110.522 28.5686 110.447 28.4232 110.327 28.271C110.247 28.1704 110.151 28.064 110.038 27.9517L109.24 29.4131ZM110.25 26.3864L111.003 25.0073C110.889 24.9645 110.781 24.9375 110.679 24.9262C110.5 24.9043 110.342 24.9243 110.207 24.9861C110.073 25.049 109.97 25.1469 109.897 25.2799C109.833 25.3884 109.803 25.4977 109.808 25.6078C109.816 25.7189 109.848 25.8295 109.906 25.9394C109.964 26.0472 110.041 26.1558 110.136 26.2649C110.172 26.3057 110.21 26.3462 110.25 26.3864Z" fill="url(#paint0_radial_262_3542)"/>
<path fill-rule="evenodd" clip-rule="evenodd" d="M98.879 21.153C104.094 20.1024 107.471 15.0227 106.42 9.8072C105.369 4.59173 100.29 1.21546 95.0743 2.2661C89.8588 3.31674 86.4826 8.39643 87.5332 13.6119C88.5839 18.8274 93.6635 22.2036 98.879 21.153ZM97.5112 16.9042L97.7325 18.0023L98.5181 17.8441L98.2971 16.7467C98.924 16.5859 99.4531 16.3581 99.8843 16.0633C100.404 15.7061 100.77 15.2785 100.982 14.7804C101.196 14.2786 101.245 13.7271 101.127 13.126C101.042 12.7178 100.893 12.3705 100.683 12.0839C100.475 11.7966 100.217 11.5628 99.9084 11.3824C99.5996 11.202 99.2502 11.068 98.8603 10.9804C98.4704 10.8928 98.0519 10.8442 97.6046 10.8346L97.1024 10.8165L96.6216 8.42944C96.9539 8.4062 97.2422 8.45145 97.4864 8.5652C97.8202 8.72064 98.0451 8.98772 98.1613 9.36645L100.149 8.96594C100.022 8.38341 99.7621 7.90073 99.3692 7.51791C98.9764 7.1351 98.4818 6.87414 97.8855 6.73504C97.3934 6.6191 96.8548 6.60174 96.2698 6.68296L96.0475 5.57983L95.2619 5.73811L95.4849 6.84545C94.9458 6.99565 94.4716 7.21556 94.0625 7.50517C93.5505 7.86752 93.178 8.30316 92.9449 8.81208C92.7149 9.32035 92.6614 9.8712 92.7842 10.4646C92.9271 11.1902 93.2812 11.7188 93.8464 12.0503C94.4117 12.3817 95.1282 12.5647 95.996 12.5993L96.6503 12.6302L97.1588 15.1545C96.9423 15.172 96.7364 15.1644 96.541 15.1316C96.2374 15.0765 95.9791 14.9573 95.7661 14.7743C95.5556 14.5873 95.4061 14.3317 95.3175 14.0072L93.3101 14.4116C93.4683 15.1142 93.7585 15.6722 94.1808 16.0857C94.6056 16.4953 95.1347 16.7626 95.7681 16.8876C96.2957 16.9906 96.8768 16.9962 97.5112 16.9042ZM97.9435 14.9913C98.1221 14.9296 98.2812 14.8534 98.4209 14.7629C98.6622 14.6079 98.8364 14.425 98.9434 14.214C99.0505 14.003 99.0802 13.7793 99.0326 13.543C98.9882 13.3226 98.8854 13.1505 98.7242 13.0268C98.5662 12.9024 98.352 12.8126 98.0817 12.7574C97.9039 12.7202 97.7022 12.6923 97.4766 12.6736L97.9435 14.9913ZM96.2772 10.7784L95.8366 8.59116C95.6741 8.64833 95.5318 8.71763 95.4099 8.79906C95.1954 8.93865 95.0426 9.10403 94.9515 9.2952C94.8636 9.48573 94.8409 9.68639 94.8833 9.89718C94.9123 10.0741 94.9799 10.22 95.0862 10.3349C95.1956 10.4491 95.3318 10.5396 95.4948 10.6065C95.6572 10.6702 95.8397 10.7182 96.0423 10.7505C96.119 10.7615 96.1973 10.7708 96.2772 10.7784Z" fill="url(#paint1_radial_262_3542)"/>
<path fill-rule="evenodd" clip-rule="evenodd" d="M109.769 20.7951C113.508 22.0411 117.549 20.0203 118.795 16.2817C120.041 12.543 118.02 8.50209 114.281 7.25609C110.543 6.01009 106.502 8.0308 105.256 11.7695C104.01 15.5082 106.03 19.5491 109.769 20.7951ZM110.455 17.5606L110.193 18.3478L110.756 18.5355L111.018 17.7489C111.48 17.8765 111.904 17.925 112.29 17.8944C112.756 17.8562 113.148 17.7162 113.468 17.4742C113.791 17.2308 114.025 16.8942 114.171 16.4646C114.266 16.1707 114.299 15.893 114.269 15.6312C114.242 15.3702 114.162 15.1249 114.03 14.8952C113.898 14.6655 113.723 14.4507 113.504 14.2507C113.286 14.0508 113.035 13.8654 112.751 13.6944L112.435 13.4979L113.005 11.7867C113.227 11.8942 113.396 12.0295 113.511 12.1925C113.668 12.4154 113.715 12.6699 113.65 12.9561L115.075 13.431C115.208 13.0098 115.218 12.6038 115.107 12.2131C114.995 11.8223 114.774 11.4724 114.442 11.1634C114.168 10.9076 113.828 10.6981 113.423 10.5348L113.686 9.74399L113.123 9.55629L112.858 10.3501C112.457 10.248 112.071 10.2147 111.701 10.2501C111.239 10.2943 110.839 10.4371 110.502 10.6782C110.167 10.9202 109.929 11.2544 109.79 11.6811C109.614 12.2 109.647 12.6701 109.888 13.0913C110.129 13.5126 110.522 13.8941 111.067 14.236L111.476 14.4969L110.873 16.3064C110.728 16.2379 110.598 16.1572 110.485 16.0641C110.31 15.9168 110.188 15.7451 110.118 15.549C110.052 15.3514 110.05 15.132 110.113 14.8908L108.674 14.4112C108.516 14.921 108.497 15.3866 108.617 15.8078C108.739 16.2275 108.98 16.5942 109.341 16.9078C109.642 17.1684 110.014 17.386 110.455 17.5606ZM111.438 16.4906C111.575 16.5167 111.706 16.5264 111.829 16.5196C112.041 16.5089 112.22 16.4555 112.367 16.3593C112.513 16.2632 112.615 16.1304 112.671 15.961C112.724 15.803 112.721 15.6546 112.663 15.5157C112.607 15.3776 112.503 15.241 112.349 15.1059C112.249 15.0165 112.129 14.9242 111.991 14.8291L111.438 16.4906ZM111.919 13.1694L112.441 11.6015C112.316 11.5784 112.199 11.5705 112.09 11.5779C111.901 11.5886 111.742 11.6386 111.613 11.7279C111.486 11.8179 111.398 11.9385 111.348 12.0896C111.301 12.214 111.291 12.3327 111.317 12.4456C111.345 12.5593 111.399 12.6677 111.479 12.7707C111.56 12.8715 111.66 12.9695 111.778 13.0649C111.823 13.1003 111.87 13.1351 111.919 13.1694Z" fill="url(#paint2_radial_262_3542)"/>
<mask id="path-4-outside-1_262_3542" maskUnits="userSpaceOnUse" x="0" y="27" width="99" height="78" fill="black">
<rect fill="white" y="27" width="99" height="78"/>
<path fill-rule="evenodd" clip-rule="evenodd" d="M1 96.3999V104H13V96.3999H1ZM18 104H30V88.8H18V104ZM47 104H35V73.6001H47V104ZM86 104H98V28H86V104ZM69 43.2H81V104H69V43.2ZM64 58.3999H52V104H64V58.3999Z"/>
</mask>
<path fill-rule="evenodd" clip-rule="evenodd" d="M1 96.3999V104H13V96.3999H1ZM18 104H30V88.8H18V104ZM47 104H35V73.6001H47V104ZM86 104H98V28H86V104ZM69 43.2H81V104H69V43.2ZM64 58.3999H52V104H64V58.3999Z" fill="url(#paint3_linear_262_3542)"/>
<path d="M1 104H0V105H1V104ZM1 96.3999V95.3999H0V96.3999H1ZM13 104V105H14V104H13ZM13 96.3999H14V95.3999H13V96.3999ZM30 104V105H31V104H30ZM18 104H17V105H18V104ZM30 88.8H31V87.8H30V88.8ZM18 88.8V87.8H17V88.8H18ZM47 104V105H48V104H47ZM35 104H34V105H35V104ZM35 73.6001V72.6001H34V73.6001H35ZM47 73.6001H48V72.6001H47V73.6001ZM98 104V105H99V104H98ZM86 104H85V105H86V104ZM98 28H99V27H98V28ZM86 28V27H85V28H86ZM81 43.2H82V42.2H81V43.2ZM69 43.2V42.2H68V43.2H69ZM81 104V105H82V104H81ZM69 104H68V105H69V104ZM52 58.3999V57.3999H51V58.3999H52ZM64 58.3999H65V57.3999H64V58.3999ZM52 104H51V105H52V104ZM64 104V105H65V104H64ZM2 104V96.3999H0V104H2ZM13 103H1V105H13V103ZM12 96.3999V104H14V96.3999H12ZM1 97.3999H13V95.3999H1V97.3999ZM30 103H18V105H30V103ZM29 88.8V104H31V88.8H29ZM18 89.8H30V87.8H18V89.8ZM19 104V88.8H17V104H19ZM47 103H35V105H47V103ZM34 73.6001V104H36V73.6001H34ZM47 72.6001H35V74.6001H47V72.6001ZM48 104V73.6001H46V104H48ZM98 103H86V105H98V103ZM97 28V104H99V28H97ZM86 29H98V27H86V29ZM87 104V28H85V104H87ZM81 42.2H69V44.2H81V42.2ZM82 104V43.2H80V104H82ZM69 105H81V103H69V105ZM68 43.2V104H70V43.2H68ZM52 59.3999H64V57.3999H52V59.3999ZM53 104V58.3999H51V104H53ZM64 103H52V105H64V103ZM63 58.3999V104H65V58.3999H63Z" fill="url(#paint4_linear_262_3542)" style="mix-blend-mode:overlay" mask="url(#path-4-outside-1_262_3542)"/>
<defs>
<radialGradient id="paint0_radial_262_3542" cx="0" cy="0" r="1" gradientUnits="userSpaceOnUse" gradientTransform="translate(106.94 21.5577) rotate(65.9033) scale(14.0048 10.8479)">
<stop stop-color="#FFBE00"/>
<stop offset="1" stop-color="#FFE5B7"/>
</radialGradient>
<radialGradient id="paint1_radial_262_3542" cx="0" cy="0" r="1" gradientUnits="userSpaceOnUse" gradientTransform="translate(88.2684 8.55047) rotate(25.8768) scale(19.8861 15.4035)">
<stop stop-color="#FFBE00"/>
<stop offset="1" stop-color="#FFE5B7"/>
</radialGradient>
<radialGradient id="paint2_radial_262_3542" cx="0" cy="0" r="1" gradientUnits="userSpaceOnUse" gradientTransform="translate(107.593 8.78761) rotate(55.6983) scale(14.7301 11.4098)">
<stop stop-color="#FFBE00"/>
<stop offset="1" stop-color="#FFE5B7"/>
</radialGradient>
<linearGradient id="paint3_linear_262_3542" x1="-1.77143" y1="88.9768" x2="101.646" y2="86.3261" gradientUnits="userSpaceOnUse">
<stop stop-color="#377CFF"/>
<stop offset="0.498747" stop-color="#A3C7FF"/>
<stop offset="1" stop-color="#B4BBD4"/>
</linearGradient>
<linearGradient id="paint4_linear_262_3542" x1="-1.77143" y1="88.9768" x2="101.646" y2="86.3261" gradientUnits="userSpaceOnUse">
<stop stop-color="#A3C7FF"/>
<stop offset="1" stop-color="#B4BBD4"/>
</linearGradient>
</defs>
</svg>
