<svg width="174" height="36" viewBox="0 0 174 36" fill="none" xmlns="http://www.w3.org/2000/svg">
<path d="M20.4064 0C20.4083 0.271143 20.4105 0.544482 20.4126 0.819409V0.82168C20.4292 2.93948 20.4466 5.15088 20.3381 7.16628C20.323 7.44675 20.3054 7.7249 20.2849 8H31.7008C35.0145 8 37.7008 5.31372 37.7008 2V0H20.4064Z" fill="white"/>
<path d="M18.5717 14.4C16.8796 16.9282 14.6111 18.881 11.3008 19.3449V36H18.5008V21.6H28.5008V14.4H18.5717Z" fill="white"/>
<path d="M18.4054 0C18.4074 0.296924 18.4097 0.594775 18.4121 0.892969C18.4286 2.99202 18.4452 5.1094 18.3402 7.05872C18.2688 8.38337 18.1425 9.59475 17.9296 10.6336C17.7147 11.6818 17.4237 12.493 17.0594 13.0583C15.6179 15.2952 13.8459 16.871 11.3 17.3196V8H6C2.68628 8 0 5.31372 0 2V0H18.4054Z" fill="url(#paint0_linear_262_3442)"/>
<path d="M54.7972 27.5H51.7492V11.924H45.9892V9.188H60.6052V11.924H54.7972V27.5ZM60.8315 27.5V14.084H63.6635V14.66C63.6635 14.9 63.6395 15.1 63.5915 15.26C63.5435 15.42 63.4555 15.588 63.3275 15.764L63.6635 15.98C64.1595 15.212 64.7195 14.668 65.3435 14.348C65.9675 14.012 66.7355 13.844 67.6475 13.844H67.9595V16.604H67.2395C66.1675 16.604 65.3435 16.892 64.7675 17.468C64.0315 18.156 63.6635 19.34 63.6635 21.02V27.5H60.8315ZM73.624 27.764C72.312 27.764 71.256 27.42 70.456 26.732C69.656 26.044 69.256 25.084 69.256 23.852C69.256 22.604 69.744 21.62 70.72 20.9C71.424 20.388 72.464 19.996 73.84 19.724L78.088 18.932C78.072 18.036 77.832 17.348 77.368 16.868C76.872 16.372 76.2 16.124 75.352 16.124C74.664 16.124 74.064 16.324 73.552 16.724C73.04 17.108 72.72 17.636 72.592 18.308H69.76C69.984 16.868 70.624 15.764 71.68 14.996C72.752 14.228 73.984 13.844 75.376 13.844C76.176 13.844 76.92 13.956 77.608 14.18C78.312 14.404 78.912 14.74 79.408 15.188C80.064 15.796 80.472 16.508 80.632 17.324C80.808 18.14 80.896 19.108 80.896 20.228V27.5H78.064V27.044C78.064 26.676 78.16 26.236 78.352 25.724L78.016 25.556C77.68 26.148 77.248 26.636 76.72 27.02C75.984 27.516 74.952 27.764 73.624 27.764ZM74.248 25.46C74.904 25.46 75.52 25.324 76.096 25.052C76.752 24.716 77.216 24.308 77.488 23.828C77.648 23.54 77.768 23.268 77.848 23.012C77.928 22.756 78.016 22.412 78.112 21.98C78.16 21.772 78.224 21.62 78.304 21.524C78.384 21.412 78.496 21.348 78.64 21.332L78.568 20.948C77.272 21.236 76.376 21.42 75.88 21.5L74.536 21.764C73.608 21.956 72.952 22.228 72.568 22.58C72.248 22.9 72.088 23.3 72.088 23.78C72.088 24.308 72.28 24.724 72.664 25.028C73.064 25.316 73.592 25.46 74.248 25.46ZM89.2705 27.764C88.1025 27.764 87.0705 27.476 86.1745 26.9C85.2945 26.308 84.6065 25.484 84.1105 24.428C83.6145 23.372 83.3665 22.164 83.3665 20.804C83.3665 19.444 83.6145 18.236 84.1105 17.18C84.6065 16.124 85.2945 15.308 86.1745 14.732C87.0705 14.14 88.1025 13.844 89.2705 13.844C90.1665 13.844 90.9185 14.004 91.5265 14.324C92.1505 14.644 92.7345 15.196 93.2785 15.98L93.6145 15.764C93.4865 15.604 93.3985 15.444 93.3505 15.284C93.3025 15.108 93.2785 14.9 93.2785 14.66V9.188H96.1105V27.5H93.2785V26.924C93.2785 26.684 93.3025 26.484 93.3505 26.324C93.3985 26.148 93.4865 25.988 93.6145 25.844L93.2785 25.604C92.7345 26.388 92.1585 26.948 91.5505 27.284C90.9425 27.604 90.1825 27.764 89.2705 27.764ZM89.8465 25.316C90.5665 25.316 91.2065 25.124 91.7665 24.74C92.3265 24.356 92.7665 23.82 93.0865 23.132C93.4065 22.444 93.5665 21.668 93.5665 20.804C93.5665 19.94 93.4065 19.164 93.0865 18.476C92.7665 17.788 92.3265 17.252 91.7665 16.868C91.2065 16.484 90.5665 16.292 89.8465 16.292C88.7425 16.292 87.8625 16.716 87.2065 17.564C86.5505 18.412 86.2225 19.492 86.2225 20.804C86.2225 22.116 86.5505 23.196 87.2065 24.044C87.8625 24.892 88.7425 25.316 89.8465 25.316ZM104.897 27.764C103.585 27.764 102.417 27.468 101.393 26.876C100.385 26.268 99.6014 25.444 99.0414 24.404C98.4814 23.348 98.2014 22.164 98.2014 20.852C98.2014 19.636 98.4494 18.492 98.9454 17.42C99.4574 16.348 100.209 15.484 101.201 14.828C102.209 14.172 103.417 13.844 104.825 13.844C106.009 13.844 107.105 14.1 108.113 14.612C109.137 15.108 109.953 15.868 110.561 16.892C111.185 17.916 111.497 19.172 111.497 20.66V21.38H102.617C101.785 21.38 101.209 21.356 100.889 21.308L100.793 21.692C100.937 21.724 101.033 21.788 101.081 21.884C101.145 21.964 101.209 22.092 101.273 22.268C101.417 22.604 101.505 22.804 101.537 22.868C101.857 23.62 102.313 24.212 102.905 24.644C103.513 25.076 104.201 25.292 104.969 25.292C105.785 25.292 106.481 25.084 107.057 24.668C107.649 24.236 108.073 23.7 108.329 23.06H111.257C110.825 24.452 110.073 25.588 109.001 26.468C107.929 27.332 106.561 27.764 104.897 27.764ZM101.201 19.532C101.441 19.388 101.649 19.292 101.825 19.244C102.017 19.18 102.241 19.148 102.497 19.148H107.249C107.521 19.148 107.753 19.18 107.945 19.244C108.153 19.292 108.377 19.388 108.617 19.532L108.857 19.22C108.713 19.14 108.617 19.068 108.569 19.004C108.537 18.924 108.497 18.812 108.449 18.668C108.417 18.444 108.305 18.18 108.113 17.876C107.793 17.316 107.353 16.892 106.793 16.604C106.233 16.3 105.609 16.148 104.921 16.148C104.217 16.148 103.593 16.3 103.049 16.604C102.505 16.892 102.065 17.316 101.729 17.876C101.601 18.084 101.489 18.348 101.393 18.668C101.361 18.796 101.321 18.9 101.273 18.98C101.225 19.044 101.129 19.124 100.985 19.22L101.201 19.532ZM114.035 27.5V14.084H116.867V14.66C116.867 14.9 116.843 15.1 116.795 15.26C116.747 15.42 116.659 15.588 116.531 15.764L116.867 15.98C117.363 15.212 117.923 14.668 118.547 14.348C119.171 14.012 119.939 13.844 120.851 13.844H121.163V16.604H120.443C119.371 16.604 118.547 16.892 117.971 17.468C117.235 18.156 116.867 19.34 116.867 21.02V27.5H114.035ZM124.327 27.5V16.412H122.215V14.084H124.327V12.692C124.327 11.556 124.631 10.692 125.239 10.1C125.863 9.492 126.759 9.188 127.927 9.188H129.847V11.516H128.599C127.655 11.516 127.183 12.044 127.183 13.1C127.183 13.276 127.167 13.444 127.135 13.604C127.119 13.748 127.055 13.908 126.943 14.084L127.183 14.324C127.359 14.212 127.527 14.148 127.687 14.132C127.847 14.1 128.031 14.084 128.239 14.084H129.847V16.412H127.183V27.5H124.327ZM134.983 27.5C133.943 27.5 133.159 27.26 132.631 26.78C132.103 26.3 131.839 25.508 131.839 24.404V9.188H134.671V23.66C134.671 24.188 134.759 24.564 134.935 24.788C135.127 25.012 135.463 25.124 135.943 25.124H136.735V27.5H134.983ZM144.93 27.764C143.618 27.764 142.45 27.468 141.426 26.876C140.402 26.284 139.602 25.46 139.026 24.404C138.466 23.332 138.186 22.108 138.186 20.732C138.186 19.404 138.466 18.22 139.026 17.18C139.602 16.124 140.402 15.308 141.426 14.732C142.45 14.14 143.618 13.844 144.93 13.844C146.242 13.844 147.41 14.14 148.434 14.732C149.458 15.308 150.258 16.124 150.834 17.18C151.41 18.22 151.698 19.404 151.698 20.732C151.698 22.092 151.41 23.308 150.834 24.38C150.274 25.436 149.482 26.268 148.458 26.876C147.434 27.468 146.258 27.764 144.93 27.764ZM144.93 25.292C145.666 25.292 146.33 25.1 146.922 24.716C147.514 24.316 147.97 23.772 148.29 23.084C148.626 22.396 148.794 21.612 148.794 20.732C148.794 19.9 148.626 19.148 148.29 18.476C147.97 17.788 147.514 17.252 146.922 16.868C146.33 16.484 145.666 16.292 144.93 16.292C144.194 16.292 143.53 16.484 142.938 16.868C142.346 17.236 141.882 17.764 141.546 18.452C141.226 19.124 141.066 19.884 141.066 20.732C141.066 21.628 141.234 22.42 141.57 23.108C141.906 23.796 142.362 24.332 142.938 24.716C143.53 25.1 144.194 25.292 144.93 25.292ZM157.205 27.5L153.173 14.084H156.197L158.261 21.788C158.341 22.108 158.397 22.428 158.429 22.748C158.477 23.068 158.509 23.412 158.525 23.78H158.813C158.829 23.348 158.853 22.996 158.885 22.724C158.933 22.436 159.005 22.124 159.101 21.788L161.477 14.084H163.973L166.373 21.788C166.517 22.316 166.605 22.98 166.637 23.78H166.949C166.965 23.316 166.981 22.948 166.997 22.676C167.029 22.404 167.093 22.108 167.189 21.788L169.301 14.084H172.325L168.221 27.5H165.557L163.205 19.604C163.093 19.252 163.021 18.948 162.989 18.692C162.957 18.436 162.925 18.076 162.893 17.612H162.605C162.573 18.028 162.533 18.372 162.485 18.644C162.453 18.916 162.381 19.236 162.269 19.604L159.869 27.5H157.205Z" fill="#FEFEFE"/>
<defs>
<linearGradient id="paint0_linear_262_3442" x1="0" y1="0" x2="15.4" y2="15.45" gradientUnits="userSpaceOnUse">
<stop stop-color="#F5C96D"/>
<stop offset="1" stop-color="#F5B160"/>
</linearGradient>
</defs>
</svg>
