<svg width="38" height="36" viewBox="0 0 38 36" fill="none" xmlns="http://www.w3.org/2000/svg">
<g clip-path="url(#clip0_342_3135)">
<path d="M20.4064 0C20.4083 0.271143 20.4105 0.544482 20.4126 0.819409V0.82168C20.4292 2.93948 20.4466 5.15088 20.3381 7.16628C20.323 7.44675 20.3054 7.7249 20.2849 8H31.7008C35.0145 8 37.7008 5.31372 37.7008 2V0H20.4064Z" fill="white"/>
<path d="M18.5717 14.4C16.8796 16.9282 14.6111 18.881 11.3008 19.3449V36H18.5008V21.6H28.5008V14.4H18.5717Z" fill="white"/>
<path d="M18.4054 0C18.4074 0.296924 18.4097 0.594775 18.4121 0.892969C18.4286 2.99202 18.4452 5.1094 18.3402 7.05872C18.2688 8.38337 18.1425 9.59475 17.9296 10.6336C17.7147 11.6818 17.4237 12.493 17.0594 13.0583C15.6179 15.2952 13.8459 16.871 11.3 17.3196V8H6C2.68628 8 0 5.31372 0 2V0H18.4054Z" fill="url(#paint0_linear_342_3135)"/>
</g>
<defs>
<linearGradient id="paint0_linear_342_3135" x1="0" y1="0" x2="15.4" y2="15.45" gradientUnits="userSpaceOnUse">
<stop stop-color="#F5C96D"/>
<stop offset="1" stop-color="#F5B160"/>
</linearGradient>
<clipPath id="clip0_342_3135">
<rect width="37.7003" height="36" fill="white"/>
</clipPath>
</defs>
</svg>
