<svg width="28" height="28" viewBox="0 0 28 28" fill="none" xmlns="http://www.w3.org/2000/svg">
<path d="M9.66065 23.4802C18.462 23.4802 23.278 16.1816 23.278 9.86289C23.278 9.65756 23.278 9.45223 23.2687 9.24689C24.202 8.57489 25.014 7.72556 25.658 6.76423C24.7993 7.14689 23.8753 7.39889 22.9047 7.52023C23.894 6.93223 24.65 5.98956 25.014 4.86956C24.09 5.42023 23.0633 5.81223 21.9713 6.02689C21.094 5.09356 19.8527 4.51489 18.4807 4.51489C15.8393 4.51489 13.6927 6.66156 13.6927 9.30289C13.6927 9.67623 13.7393 10.0402 13.814 10.3949C9.83799 10.1989 6.30998 8.28556 3.94865 5.39223C3.53798 6.10156 3.30465 6.92289 3.30465 7.80023C3.30465 9.46156 4.15398 10.9269 5.43265 11.7856C4.64865 11.7576 3.91132 11.5429 3.26732 11.1882C3.26732 11.2069 3.26732 11.2256 3.26732 11.2536C3.26732 13.5682 4.91932 15.5096 7.10332 15.9482C6.70198 16.0602 6.28198 16.1162 5.84332 16.1162C5.53532 16.1162 5.23665 16.0882 4.94732 16.0322C5.55398 17.9362 7.32732 19.3176 9.41798 19.3549C7.77532 20.6429 5.71265 21.4082 3.47265 21.4082C3.08998 21.4082 2.70732 21.3896 2.33398 21.3429C4.44332 22.6869 6.96332 23.4802 9.66065 23.4802Z" fill="white"/>
</svg>
